
  <svg xmlns="http://www.w3.org/2000/svg" width="1920" height="1080" viewBox="0 0 1920 1080">
    <rect width="100%" height="100%" fill="#ffffff"/>
    <rect x="0" y="0" width="1920" height="90" fill="#008ccf"/>
    <text x="140" y="62" fill="white" font-size="30" font-weight="800">TodoMessenger</text>
    <text x="1660" y="62" fill="white" font-size="24" font-weight="700">Demo 01</text>
    <text x="140" y="245" fill="#008ccf" font-size="28" font-weight="850">AI WORKPLACE MESSAGING</text>
    <text x="140" y="335" fill="#111827" font-size="70" font-weight="900">Tasks get lost in</text>
<text x="140" y="410.6" fill="#111827" font-size="70" font-weight="900">conversations.</text>
    <text x="140" y="470" fill="#607287" font-size="42" font-weight="520">Chat. Email. Meetings. Follow-ups.</text>
    
        <rect x="980" y="250" width="250" height="66" rx="20" fill="#edf8fd" stroke="#d6e3ea"/><text x="1010" y="293" fill="#111827" font-size="28" font-weight="700">WhatsApp</text>
<rect x="1280" y="342" width="250" height="66" rx="20" fill="#ffffff" stroke="#d6e3ea"/><text x="1310" y="385" fill="#111827" font-size="28" font-weight="700">Teams</text>
<rect x="980" y="434" width="250" height="66" rx="20" fill="#edf8fd" stroke="#d6e3ea"/><text x="1010" y="477" fill="#111827" font-size="28" font-weight="700">Gmail</text>
<rect x="1280" y="526" width="250" height="66" rx="20" fill="#ffffff" stroke="#d6e3ea"/><text x="1310" y="569" fill="#111827" font-size="28" font-weight="700">Zoom</text>
<rect x="980" y="618" width="250" height="66" rx="20" fill="#edf8fd" stroke="#d6e3ea"/><text x="1010" y="661" fill="#111827" font-size="28" font-weight="700">Meet</text>
        <path d="M1230 760 C1120 710 1070 640 1010 560" fill="none" stroke="#008ccf" stroke-width="8" stroke-linecap="round"/>
      
    <text x="140" y="998" fill="#607287" font-size="28">Work does not always start in a project management tool. It starts in chat, email, and meetings.</text>
  </svg>